<svg width="700" height="701" viewBox="0 0 700 701" fill="none" xmlns="http://www.w3.org/2000/svg">
<circle cx="350.5" cy="350.5" r="284.5" fill="white"/>
<path d="M699.5 361V340H647V361H699.5Z" fill="#5EBC4B"/>
<path d="M336 700L362 700L362 647L336 647L336 700Z" fill="#5EBC4B"/>
<path d="M274.491 116.94C290.42 111.851 311.5 107.299 326.168 105.783C332.259 105.153 337.856 104.755 338.609 104.899C339.361 105.043 345.838 113.523 353.004 123.742C360.17 133.962 376.995 157.557 390.395 176.178C403.794 194.798 414.96 210.516 415.208 211.104C415.456 211.693 412.906 210.956 409.543 209.468C406.179 207.98 397.567 205.056 390.405 202.969L377.384 199.176L266.746 198.438L156.107 197.7L173.313 180.198C204.126 148.851 234.969 129.567 274.491 116.94Z" fill="#5EBC4B"/>
<path d="M411.989 173.472C371.278 116.244 364.234 106.184 364.234 105.279C364.234 104.652 367.159 104.92 383.612 107.063C442.247 114.697 500.94 147.132 538.643 192.738C545.114 200.566 550.879 207.794 551.453 208.801C552.083 209.903 544.193 230.65 531.633 260.928C520.155 288.592 509.159 315.274 507.195 320.224C505.232 325.173 503.181 329.729 502.637 330.348C502.094 330.967 501.222 328.258 500.702 324.327C499.316 313.879 493.444 296.198 487.155 283.536C481.057 271.259 469.181 253.869 411.989 173.472Z" fill="#5EBC4B"/>
<path d="M107.962 303.61C112.769 281.286 120.166 260.608 131.36 238.195L141.561 217.775H207.219C243.331 217.775 272.877 217.998 272.877 218.27C272.877 218.544 269.503 221.007 265.381 223.744C245.51 236.941 238.884 244.478 191.83 307.411C166.92 340.727 138.994 378.053 129.771 390.358C119.386 404.212 112.638 412.089 112.044 411.046C111.518 410.12 109.667 402.856 107.931 394.905C105.162 382.215 104.78 376.637 104.805 349.297C104.828 322.224 105.242 316.245 107.962 303.61Z" fill="#5EBC4B"/>
<path d="M540.924 288.644C553.548 258.423 564.238 232.775 564.678 231.65C566.577 226.805 584.27 270.137 590.514 294.924C596.754 319.7 598.464 355.775 594.664 382.517C592.604 397.009 585.845 424.651 582.266 433.221C579.993 438.659 585.494 437.085 515.111 452.435C485.04 458.995 458.005 464.904 455.036 465.568L449.635 466.774L458.658 457.53C479.014 436.674 483.601 428.703 503.261 380.018C511.352 359.985 528.3 318.867 540.924 288.644Z" fill="#5EBC4B"/>
<path d="M119.164 436.319L158.817 383.116C180.625 353.856 198.549 329.916 198.646 329.916C198.743 329.918 198.839 340.042 198.859 352.413C198.9 376.032 201.028 390.547 225.674 535.159C228.496 551.72 230.401 565.271 229.907 565.271C229.413 565.271 222.529 560.986 214.607 555.748C174.524 529.243 143.184 492.042 124.582 448.886L119.164 436.319Z" fill="#5EBC4B"/>
<path d="M241.768 514.046C236.045 480.162 231.359 451.255 231.356 449.806C231.352 447.932 235.24 450.919 244.872 460.19C252.662 467.689 270.918 482.299 287.946 494.664C304.202 506.466 326.927 523.003 338.445 531.414C349.964 539.824 371.69 555.614 386.727 566.503C401.762 577.391 414.349 586.761 414.697 587.325C415.647 588.863 387.413 594.091 368.415 595.894C349.102 597.727 322.402 596.011 300.561 591.529C285.963 588.533 257.761 579.845 254.363 577.294C252.748 576.083 249.453 559.54 241.768 514.046Z" fill="#5EBC4B"/>
<path d="M374.302 501.65C385.143 500.096 483.842 479.279 541.411 466.4C556.257 463.079 568.881 460.292 569.465 460.208C571.088 459.971 564.051 473.305 556.028 485.665C532.642 521.697 496.196 553.241 455.163 572.967L438.816 580.825L434.226 577.546C407.783 558.667 332.534 503.498 332.475 502.948C332.432 502.555 339.264 502.469 347.657 502.757C356.05 503.044 368.04 502.546 374.302 501.65Z" fill="#5EBC4B"/>
<path fill-rule="evenodd" clip-rule="evenodd" d="M320.631 1.83027C196.887 13.6022 90.7369 86.6179 36.0902 197.555C15.2331 239.897 5.49385 276.755 0.878937 330.808L0.022135 340.845H22.2523C42.6388 340.845 44.7137 341.075 47.2524 343.614C50.8111 347.173 50.8111 353.899 47.2524 357.458C44.7137 359.997 42.6388 360.227 22.2413 360.227H0L0.901114 371.649C6.86285 447.137 31.5542 510.559 77.576 568.589C91.8817 586.627 122.917 616.919 140.594 630.096C155.462 641.18 178.083 655.351 192.82 662.817C230.991 682.151 280.465 696.059 320.631 698.746C327.483 699.205 334.449 699.855 336.108 700.193C339.098 700.799 339.133 700.584 339.569 678.527C339.995 657.039 340.126 656.154 343.278 653.604C347.515 650.176 353.816 650.233 357.313 653.73C359.84 656.258 360.081 658.344 360.081 677.726C360.081 689.403 360.354 699.227 360.686 699.56C361.955 700.83 394.52 697.955 409.822 695.22C466.876 685.031 515.758 663.406 564.25 626.906C579.261 615.608 608.462 586.864 622.092 569.971C667.243 514.009 695.183 443.504 698.763 376.495L699.632 360.227H677.966C658.145 360.227 656.064 359.992 653.531 357.458C651.993 355.92 650.763 352.844 650.763 350.536C650.763 348.228 651.993 345.152 653.531 343.614C656.064 341.08 658.145 340.845 677.965 340.845H699.632L698.727 325.27C697.59 305.683 694.685 286.324 690.18 268.324C686.222 252.501 677.325 224.878 675.907 224.001C675.392 223.682 666.943 226.79 657.131 230.909C647.32 235.026 637.797 238.396 635.967 238.396C632.278 238.396 625.847 232.759 625.847 229.526C625.847 222.058 630.685 218.91 656.992 209.259C661.559 207.582 665.809 205.745 666.435 205.175C667.062 204.604 664.171 197.361 660.012 189.079C647.573 164.305 627.457 135.569 607.614 114.233L599.654 105.673L586.425 119.961C572.104 135.428 567.016 138.721 561.392 136.158C558.048 134.635 555.253 129.673 555.253 125.261C555.253 124.052 562.133 116.089 570.54 107.565L585.827 92.067L572.962 81.3445C554.964 66.3427 528.55 49.0039 507.504 38.3741C497.673 33.4081 489.205 29.3447 488.684 29.3447C488.164 29.3447 484.509 37.5988 480.563 47.6886C471.231 71.5454 466.426 76.1376 457.854 69.3926C452.6 65.26 453.132 60.636 461.128 40.9796C464.934 31.6208 468.049 23.3806 468.049 22.6689C468.049 18.3329 413.348 4.91343 385.689 2.46296C380.36 1.99086 372.418 1.24325 368.04 0.801608L360.081 0V22.0445C360.081 43.2999 359.966 44.1984 356.878 47.1016C351.586 52.0732 344.667 50.902 341.343 44.474C339.839 41.5639 339.318 35.3851 339.318 20.415C339.318 0.393186 339.299 0.272769 336.204 0.458285C334.49 0.560734 327.483 1.17819 320.631 1.83027ZM331.705 80.1207C265.229 85.7664 208.738 111.06 162.372 155.937C137.627 179.888 119.766 204.423 106.089 233.256C78.1961 292.052 71.9174 353.657 87.5062 415.605C107.256 494.096 158.462 557.341 231.46 593.405C308.475 631.454 397.785 630.687 473.296 591.33C493.39 580.857 504.231 573.788 521.34 560.007C618.534 481.714 648.959 344.759 594.149 232.267C567.013 176.574 523.343 133.517 466.284 106.195C424.288 86.0876 374.661 76.4713 331.705 80.1207ZM331.013 218.531C310.026 222.692 287.51 231.571 273.504 241.209C254.345 254.393 235.455 278.113 227.33 299.188C219.567 319.32 218.284 326.852 218.349 351.921C218.403 372.708 218.748 375.885 222.173 387.224C230.011 413.152 245.328 436.658 265.128 453.139C277.161 463.155 301.063 475.272 317.171 479.521C334.505 484.092 366.901 484.101 383.612 479.539C430.516 466.731 466.642 430.856 479.362 384.455C483.857 368.054 483.87 334.028 479.388 317.309C469.312 279.733 443.548 248.201 409.22 231.435C388.215 221.175 378.314 218.792 354.544 218.279C343.505 218.039 332.916 218.153 331.013 218.531ZM333.781 279.352C320.33 282.902 308.95 289.438 299.258 299.183C258.059 340.606 278.699 409.764 335.858 421.82C347.94 424.369 352.803 424.38 364.574 421.885C390.9 416.304 411.872 397.647 419.762 372.787C423.738 360.256 423.738 340.816 419.762 328.285C408.416 292.536 368.947 270.072 333.781 279.352ZM311.176 306.296C309.197 307.855 306.946 311.417 306.173 314.214C302.349 328.067 314.152 339.731 327.526 335.316C334.606 332.979 337.934 328.004 337.934 319.753C337.934 313.782 337.317 312.262 333.228 308.172C329.139 304.082 327.619 303.465 321.649 303.465C316.821 303.465 313.705 304.308 311.176 306.296Z" fill="#434445"/>
</svg>
